<?xml version="1.0" encoding="utf-8"?>
<!-- Generator: Adobe Illustrator 22.0.1, SVG Export Plug-In . SVG Version: 6.00 Build 0)  -->
<svg version="1.1" id="Capa_1" xmlns="http://www.w3.org/2000/svg" xmlns:xlink="http://www.w3.org/1999/xlink" x="0px" y="0px"
	 viewBox="0 0 18 18" style="enable-background:new 0 0 18 18;" xml:space="preserve">
<style type="text/css">
	.st0{enable-background:new    ;}
	.st1{fill:#BBBBBB;}
</style>
<title>ion-close-round - Ionicons</title>
<desc>Created with Sketch.</desc>
<g id="Welcome">
	<g id="menu" transform="translate(-270.000000, -27.000000)">
		<g class="st0">
			<path class="st1" d="M287.5,42.1c0.3,0.3,0.5,0.8,0.5,1.2s-0.2,0.9-0.5,1.2s-0.7,0.5-1.2,0.5s-0.9-0.2-1.2-0.5l-6.1-6.1l-6.1,6.1
				c-0.3,0.3-0.7,0.5-1.2,0.5c-0.4,0-0.8-0.2-1.2-0.5c-0.3-0.3-0.5-0.7-0.5-1.2s0.2-0.9,0.5-1.2l6.1-6.1l-6.1-6.1
				c-0.3-0.3-0.5-0.8-0.5-1.2s0.2-0.9,0.5-1.2c0.3-0.3,0.7-0.5,1.2-0.5c0.4,0,0.8,0.2,1.2,0.5l6.1,6.1l6.1-6.1
				c0.3-0.3,0.8-0.5,1.2-0.5s0.9,0.2,1.2,0.5s0.5,0.7,0.5,1.2s-0.2,0.9-0.5,1.2l-6.1,6.1L287.5,42.1z"/>
		</g>
	</g>
</g>
</svg>
