<?xml version="1.0" encoding="UTF-8"?>
<svg width="180px" height="96px" viewBox="0 0 180 96" version="1.1" xmlns="http://www.w3.org/2000/svg" xmlns:xlink="http://www.w3.org/1999/xlink">
    <!-- Generator: Sketch 52.6 (67491) - http://www.bohemiancoding.com/sketch -->
    <title>Artboard</title>
    <desc>Created with Sketch.</desc>
    <g id="Artboard" stroke="none" stroke-width="1" fill="none" fill-rule="evenodd">
        <g id="CES-Logo-White(98x30)-01">
            <polygon id="Path" fill="#030303" points="0 92 0 78 8.86206897 78 8.86206897 79.925 1.96551724 79.925 1.96551724 84.02 7.72413793 84.02 7.72413793 85.735 2.10344828 85.735 2.10344828 89.97 9 89.97 9 91.895"></polygon>
            <path d="M17.0276811,92 L17.0276811,85.8283624 C17.0993016,85.2637035 16.9183749,84.6961809 16.5332419,84.2774274 C16.1481089,83.8586738 15.5980147,83.6313605 15.0299354,83.6562219 C14.4560113,83.6207329 13.8961958,83.8434109 13.5031389,84.2635365 C13.110082,84.6836621 12.9247745,85.2574214 12.9977458,85.8283624 L12.9977458,91.8620863 L11,91.8620863 L11,82.1391713 L12.9633019,82.1391713 L12.9633019,83.1045671 C13.6367281,82.3770187 14.5905416,81.9750104 15.5810377,82.0012576 C16.4702141,81.9772237 17.3342038,82.2984559 17.9921101,82.8976966 C18.7007543,83.6477157 19.0630424,84.6606383 18.990983,85.6904488 L18.990983,92 L17.0276811,92 Z" id="Path" fill="#030303"></path>
            <path d="M24.8356164,91.8594595 C24.1065392,91.9005398 23.3948787,91.62132 22.8785663,91.0916114 C22.3622539,90.5619029 22.0900955,89.8317776 22.130137,89.0837838 L22.130137,83.5324324 L21,83.5324324 L21,82.0567568 L22.130137,82.0567568 L22.130137,79 L24.1164384,79 L24.1164384,82.0567568 L26,82.0567568 L26,83.6027027 L24.1164384,83.6027027 L24.1164384,89.0837838 C24.1164384,89.8216216 24.4589041,90.2783784 25.1780822,90.2783784 L26,90.2783784 L26,92 L24.8356164,91.8594595 Z" id="Path" fill="#030303"></path>
            <path d="M30.1193401,87.559115 C30.1193401,89.264365 31.0860566,90.32162 32.8335826,90.32162 C33.8178477,90.3761097 34.7712403,89.9958885 35.3990996,89.29847 L36.7748115,90.492145 C35.7645288,91.5187504 34.301765,92.0704915 32.7964012,91.9927649 C30.1193401,91.9927649 28,90.696775 28,87.013435 C28,83.84167 29.7847074,82 32.5361314,82 C33.8302392,82.0189192 35.0539071,82.5439987 35.8991292,83.4430722 C36.7443512,84.3421458 37.1306235,85.5295803 36.9607186,86.70649 L36.9607186,87.559115 L30.1193401,87.559115 Z M34.6182901,84.86482 C34.2662823,84.1011712 33.4396664,83.6137431 32.5361314,83.63704 C31.622105,83.609153 30.7820986,84.095787 30.4167913,84.86482 C30.2141308,85.2832923 30.1126555,85.7370531 30.1193401,86.194915 L34.9157413,86.194915 C34.9224258,85.7370531 34.8209506,85.2832923 34.6182901,84.86482 Z" id="Shape" fill="#030303" fill-rule="nonzero"></path>
            <path d="M45.4676617,84.4499118 C45.0989648,84.0123721 44.545186,83.7701423 43.9701493,83.7948813 C43.4058386,83.8117942 42.873419,84.0578188 42.4979309,84.4751753 C42.1224429,84.8925318 41.9369712,85.4444463 41.9850746,86.0012997 L41.9850746,92 L40,92 L40,82.1400674 L41.9502488,82.1400674 L41.9502488,83.2088014 C42.5930648,82.4186271 43.5725997,81.9720666 44.5970149,82.0021662 C45.4936784,81.9695416 46.3638339,82.3066096 47,82.932999 L45.4676617,84.4499118 Z" id="Path" fill="#030303"></path>
            <path d="M55.8029674,91.0474169 C55.1566723,91.6284608 54.3177841,91.9379335 53.4559437,91.9132531 C52.4805584,91.9797473 51.532636,91.5679449 50.9048309,90.8049828 L50.9048309,96 L49,96 L49,82.1466208 L50.9388457,82.1466208 L50.9388457,83.1856242 C51.5373896,82.3771526 52.4982979,81.9336186 53.4899585,82.008087 C54.3680588,81.983945 55.2212861,82.3066216 55.8709971,82.9085566 C56.7440285,84.1136698 57.1332584,85.6122115 56.9594719,87.0992039 C57.0504947,88.5137911 56.6401439,89.9146957 55.8029674,91.0474169 Z M52.9457211,83.5665922 C51.1769496,83.5665922 50.9048309,85.0904639 50.9048309,86.8567697 C50.9048309,88.6230756 51.1769496,90.1469473 52.9457211,90.1469473 C54.7144926,90.1469473 54.9525965,88.5884421 54.9525965,86.8567697 C54.9525965,85.1250973 54.7825223,83.5665922 53.0477656,83.5665922 L52.9457211,83.5665922 Z" id="Shape" fill="#030303" fill-rule="nonzero"></path>
            <path d="M64.5024876,84.4499118 C64.1337907,84.0123721 63.5800118,83.7701423 63.0049751,83.7948813 C62.4406645,83.8117942 61.9082449,84.0578188 61.5327568,84.4751753 C61.1572687,84.8925318 60.9717971,85.4444463 61.0199005,86.0012997 L61.0199005,92 L59,92 L59,82.1400674 L60.9502488,82.1400674 L60.9502488,83.2088014 C61.5930648,82.4186271 62.5725997,81.9720666 63.5970149,82.0021662 C64.4936784,81.9695416 65.3638339,82.3066096 66,82.932999 L64.5024876,84.4499118 Z" id="Path" fill="#030303"></path>
            <path d="M68.6180306,79.7238532 C67.9993213,79.7682571 67.414435,79.4615808 67.1467386,78.9524034 C66.8790423,78.4432261 66.9838267,77.8367148 67.4103257,77.4267134 C67.8368248,77.0167121 68.496948,76.8879037 69.0708775,77.1026936 C69.6448069,77.3174834 70.0140015,77.8315082 69.9995929,78.3957321 C69.9817331,79.0951037 69.3849384,79.6688134 68.6180306,79.7238532 Z M67.4733075,92 L67.4733075,81.7339825 L69.7627537,81.7339825 L69.7627537,92 L67.4733075,92 Z" id="Shape" fill="#030303" fill-rule="nonzero"></path>
            <path d="M75.5188285,91.9820229 C73.8636214,92.10503 72.2269904,91.5928037 71,90.5677379 L72.4309623,89.2569372 C73.2578684,89.9809554 74.3770898,90.3560423 75.5188285,90.2917799 C76.8368201,90.2917799 77.8912134,89.8778428 77.8912134,88.9464844 C77.8912134,88.015126 77.4769874,87.8426522 76.460251,87.7736627 L74.7280335,87.7736627 C72.6945607,87.7736627 71.5271967,86.7733148 71.5271967,85.0485769 C71.5271967,83.3238391 73.334728,82.0130384 75.5941423,82.0130384 C77.0272706,81.9215118 78.4473344,82.3142114 79.5857741,83.1168706 L78.2301255,84.3931766 C77.4700588,83.8784506 76.5380022,83.6223138 75.5941423,83.6687867 C74.2761506,83.6687867 73.6359833,84.2207028 73.6359833,84.9450927 C73.6359833,85.6694826 73.9748954,85.9799354 75.1046025,86.0834196 L76.7991632,86.0834196 C78.832636,86.0834196 80,87.1182623 80,88.8430001 C80,90.5677379 78.1171548,91.9820229 75.5188285,91.9820229 Z" id="Path" fill="#030303"></path>
            <path d="M84.1019898,87.5591151 C84.1019898,89.2643651 85.0607922,90.32162 86.7940118,90.32162 C87.7797615,90.3707163 88.7340176,89.9924911 89.3754028,89.2984701 L90.7029753,90.492145 C89.7009634,91.5187504 88.2501747,92.0704915 86.7571348,91.9927649 C84.1019898,91.9927649 82,90.696775 82,87.0134352 C82,83.8416703 83.7700967,82.0000004 86.4989957,82.0000004 C87.7954198,81.9994723 89.0290767,82.5161795 89.8837777,83.4176888 C90.7384788,84.3191982 91.1311374,85.5178729 90.9611144,86.7064902 L90.9611144,87.5591151 L84.1019898,87.5591151 Z M88.5641085,84.8648203 C88.2149825,84.1011715 87.3951338,83.6137435 86.4989957,83.6370403 C85.5924521,83.6091533 84.7593225,84.0957874 84.3970059,84.8648203 C84.1960045,85.2832926 84.09536,85.7370534 84.1019898,86.1949152 L88.8591246,86.1949152 C88.8835501,85.7356425 88.7820691,85.2781102 88.5641085,84.8648203 Z" id="Shape" fill="#030303" fill-rule="nonzero"></path>
            <path d="M102.942864,91.9837216 C101.106043,92.1184231 99.3035487,91.4122514 98,90.0472324 L99.4271649,88.5857311 C100.345236,89.5529024 101.608572,90.0700711 102.908055,90.0106949 C104.718118,90.0106949 105.762385,89.1703316 105.762385,87.7453678 C105.794124,87.1806366 105.605632,86.6266508 105.240251,86.2107914 C104.801895,85.8448588 104.267539,85.6281503 103.70866,85.5896534 L102.142259,85.3338907 C101.16301,85.2282192 100.238911,84.8070393 99.4967827,84.1281521 C98.8006347,83.3944951 98.4337455,82.3852436 98.4873246,81.3512996 C98.4762984,80.0989485 98.9846162,78.9034565 99.8800662,78.0757669 C100.775516,77.2480773 101.969592,76.8699997 103.151717,77.0398707 C104.755107,76.9414735 106.327107,77.5354975 107.50283,78.6840597 L106.145283,80.1090235 C105.315818,79.3057947 104.208043,78.8961764 103.082099,78.97636 C101.446081,78.97636 100.54105,79.9628734 100.54105,81.241687 C100.509411,81.7630225 100.700827,82.2720253 101.063183,82.6301132 C101.520761,82.9908055 102.06125,83.2177371 102.629584,83.2877888 L104.230793,83.5435516 C105.185693,83.6274267 106.094873,84.0091588 106.841461,84.6396775 C107.646895,85.3968966 108.071357,86.5039989 107.990154,87.6357552 C107.990154,90.3760702 105.866811,91.9837216 102.942864,91.9837216 Z" id="Path" fill="#030303"></path>
            <path d="M117.771331,90.835898 C116.919,91.6194734 115.739533,92.0407399 114.524524,91.9955499 C113.319143,92.0485971 112.147837,91.6253237 111.31547,90.835898 C110.332648,89.7721318 109.869466,88.3937102 110.031849,87.0158679 C109.888549,85.6178944 110.37897,84.2271882 111.390977,83.1617304 C112.234329,82.3870902 113.397983,81.9665816 114.600031,82.0020784 C115.811869,81.9734394 116.984294,82.3921907 117.846839,83.1617304 C118.764707,84.2637398 119.158713,85.6507326 118.941692,87.0158679 C119.135585,88.3795555 118.713769,89.7563547 117.771331,90.835898 Z M116.110174,84.3213824 C115.691766,83.943773 115.114979,83.7452655 114.524524,83.7756638 C113.935549,83.7536909 113.362382,83.9509527 112.938874,84.3213824 C112.341562,85.1094648 112.086224,86.0685975 112.221556,87.0158679 C112.092162,87.9520879 112.347388,88.8986659 112.938874,89.676246 C113.356035,90.0591584 113.929997,90.2690396 114.524524,90.256072 C115.119887,90.2732283 115.695638,90.0626929 116.110174,89.676246 C116.732067,88.910547 117.002579,87.9574392 116.865246,87.0158679 C117.008642,86.0632913 116.738018,85.0975654 116.110174,84.3213824 Z" id="Shape" fill="#030303" fill-rule="nonzero"></path>
            <path d="M123.739752,91.8522167 C122.994116,91.9090985 122.26227,91.6185441 121.737027,91.0571035 C121.211785,90.4956628 120.945824,89.7196436 121.009214,88.9334975 L121.009214,77 L123.004607,77 L123.004607,88.9334975 C123.004607,89.7463054 123.284662,90.1896552 124.089821,90.1896552 L125,90.1896552 L125,92 L123.739752,91.8522167 Z" id="Path" fill="#030303"></path>
            <path d="M133.038791,91.8938908 L133.038791,90.8906641 C132.366083,91.6206519 131.413287,92.0240081 130.423846,91.9976729 C129.523847,92.0308634 128.64678,91.7079398 127.980937,91.0982283 C127.267616,90.3649389 126.914722,89.3511948 127.017537,88.3307063 L127.017537,82 L128.978745,82 L128.978745,88.0193601 C128.895997,88.5914168 129.071661,89.1707395 129.457752,89.5990855 C129.843844,90.0274315 130.400021,90.2600415 130.974361,90.2333777 C131.550909,90.2581937 132.109066,90.0264504 132.50021,89.5998546 C132.891354,89.1732587 133.075781,88.5951124 133.004384,88.0193601 L133.004384,82 L135,82 L135,91.8938908 L133.038791,91.8938908 Z" id="Path" fill="#030303"></path>
            <path d="M141.93617,91.8594595 C141.174687,91.9015215 140.431621,91.6176566 139.895737,91.0799761 C139.359854,90.5422956 139.082725,89.8025459 139.134752,89.0486486 L139.134752,83.5324324 L138,83.5324324 L138,82.0567568 L139.134752,82.0567568 L139.134752,79 L141.049645,79 L141.049645,82.0567568 L143,82.0567568 L143,83.6027027 L141.049645,83.6027027 L141.049645,89.0837838 C141.049645,89.8216216 141.404255,90.2783784 142.184397,90.2783784 L143,90.2783784 L143,92 L141.93617,91.8594595 Z" id="Path" fill="#030303"></path>
            <path d="M146.538987,79.7269288 C145.92541,79.7414249 145.364028,79.4146083 145.121796,78.9018921 C144.879565,78.3891759 145.005366,77.7940233 145.439377,77.3994509 C145.873387,77.0048785 146.528027,76.8905088 147.09199,77.1107287 C147.655953,77.3309486 148.015435,77.8413191 147.99949,78.3991404 C147.978756,79.1245062 147.336855,79.7080786 146.538987,79.7269288 Z M145.394268,92 L145.394268,81.7365545 L147.683706,81.7365545 L147.683706,92 L145.394268,92 Z" id="Shape" fill="#030303" fill-rule="nonzero"></path>
            <path d="M157.696666,90.8368669 C156.85259,91.6205675 155.684547,92.0419012 154.481306,91.9967041 C153.289266,92.0407964 152.133208,91.6188799 151.303334,90.8368669 C150.330031,89.7729308 149.871335,88.3942891 150.032145,87.0162268 C149.869623,85.627546 150.327935,84.2377627 151.303334,83.1614738 C152.141079,82.3902311 153.291707,81.9702965 154.481306,82.0016366 C155.681406,81.972993 156.842476,82.3918112 157.696666,83.1614738 C158.672065,84.2377627 159.130377,85.627546 158.967855,87.0162268 C159.128665,88.3942891 158.669969,89.7729308 157.696666,90.8368669 Z M156.088986,84.3213109 C155.655745,83.9489289 155.075959,83.7520919 154.481306,83.7755052 C153.907785,83.74612 153.348512,83.945255 152.948402,84.3213109 C152.326639,85.0976179 152.058637,86.063498 152.200644,87.0162268 C152.06464,87.9579484 152.332532,88.9112084 152.948402,89.6770297 C153.341779,90.0656404 153.901959,90.2775641 154.481306,90.2569483 C155.080593,90.2673743 155.659528,90.058542 156.088986,89.6770297 C156.674743,88.8993254 156.927497,87.9525962 156.799356,87.0162268 C156.933377,86.0688051 156.680513,85.1095192 156.088986,84.3213109 Z" id="Shape" fill="#030303" fill-rule="nonzero"></path>
            <path d="M167.130447,92 L167.130447,85.8274141 C167.203289,85.2626684 167.019277,84.6950586 166.627578,84.2762407 C166.235879,83.8574229 165.676406,83.6300747 165.098642,83.6549398 C164.514933,83.6194453 163.945573,83.8421576 163.545815,84.2623478 C163.146057,84.6825379 162.95759,85.2563854 163.031805,85.8274141 L163.031805,91.8620651 L161,91.8620651 L161,82.1376561 L162.85665,82.1376561 L162.85665,83.1032003 C164.252664,81.7160503 166.500012,81.6257552 168.006225,82.8962979 C168.718017,83.6499409 169.074126,84.6640154 168.987097,85.6894793 L168.987097,92 L167.130447,92 Z" id="Path" fill="#030303"></path>
            <path d="M175.518828,91.9808996 C173.863046,92.1081607 172.224608,91.5953448 171,90.5665483 L172.430962,89.2556862 C173.257868,89.9797383 174.37709,90.3548427 175.518828,90.2905773 C176.83682,90.2905773 177.891213,89.8766209 177.891213,88.9452188 C177.891213,88.0138167 177.476987,87.8413349 176.422594,87.7723421 L174.728033,87.7723421 C172.694561,87.7723421 171.527197,86.7719473 171.527197,85.0471287 C171.527197,83.3223101 173.334728,82.0114479 175.594142,82.0114479 C177.026481,81.9262951 178.44414,82.3183481 179.585774,83.1153318 L178.230126,84.3916976 C177.455683,83.8770278 176.511939,83.62132 175.556485,83.6672738 C174.276151,83.6672738 173.598326,84.2192157 173.598326,84.9436396 C173.598326,85.6680634 173.937238,85.9785308 175.104603,86.0820199 L176.799163,86.0820199 C178.832636,86.0820199 180,87.116911 180,88.8417297 C180,90.5665483 178.117155,91.9808996 175.518828,91.9808996 Z" id="Path" fill="#030303"></path>
            <polygon id="Rectangle" fill="#EF3829" transform="translate(161.200738, 17.714409) rotate(-45.030000) translate(-161.200738, -17.714409) " points="146.544009 13.9685863 175.911918 13.7608941 175.857467 21.4602321 146.489557 21.6679243"></polygon>
            <rect id="Rectangle" fill="#EF3829" x="132" y="0" width="8" height="22"></rect>
            <rect id="Rectangle" fill="#EF3829" x="158" y="40" width="22" height="8"></rect>
            <path d="M139.991257,55.2747977 C138.294532,57.1083341 135.951295,58.1446742 133.502265,58.1446742 C131.053235,58.1446742 128.709998,57.1083341 127.013274,55.2747977 C125.286401,53.516255 124.294881,51.1231916 124.252764,48.6122204 C124.210948,46.0074211 125.210344,43.5010195 127.013274,41.6890954 C128.671506,39.8333676 131.030498,38.8264909 133.466414,38.9347338 C135.954004,38.8311488 138.366259,39.8329319 140.098809,41.6890954 C141.801746,43.5607103 142.750881,46.0375622 142.751767,48.6122204 C142.676425,51.1156488 141.690007,53.4963996 139.991257,55.2747977 M145.906635,35.4731712 C142.66395,31.9464659 138.162431,29.9665922 133.466414,30.0016692 C128.820579,29.9345855 124.360332,31.8921827 121.169596,35.398729 C117.742203,38.8581486 115.869465,43.6514375 116.007084,48.6122204 C115.91492,53.4770918 117.786812,58.1602446 121.169596,61.527943 C124.352944,65.0542915 128.811451,67.0381163 133.466414,66.999445 C143.185681,66.9175914 151.017481,58.7032963 150.997446,48.6122204 C151.078217,43.7315463 149.23995,39.0274215 145.906635,35.5848346" id="Shape" fill="#EF3829" fill-rule="nonzero"></path>
            <path d="M21.9563842,22.0118711 C16.0999242,21.809058 10.4472093,24.2131444 6.47351663,28.5966985 C2.23182345,32.7639736 -0.11242688,38.5415254 0.00414942931,44.5408593 C-0.0718410066,50.5215089 2.26679847,56.2718594 6.47351663,60.4480266 C10.5078122,64.7383528 16.1229166,67.1130274 21.9563842,66.9958606 C26.7771182,67.0771048 31.4813862,65.4853784 35.294911,62.4826643 C39.0667685,59.4697688 41.7716106,55.2881491 43,50.5707855 L34.0591891,50.5707855 C32.9529146,52.869234 31.2892485,54.8426963 29.2253361,56.3047644 C27.0580398,57.7265737 24.53484,58.4842021 21.9563842,58.4873757 C18.3360485,58.5370568 14.859095,57.0490651 12.3613677,54.381107 C9.73854277,51.8178321 8.31122684,48.2396652 8.43613365,44.5408593 C8.26909405,40.7912397 9.69980614,37.1506239 12.3613677,34.5526379 C16.8106751,29.8810412 23.9003708,29.1034305 29.2253361,32.7029673 C31.3017801,34.1665687 32.9677778,36.1555466 34.0591891,38.4739396 L43,38.4739396 C41.7526236,33.7958783 39.0491737,29.6553501 35.294911,26.6730411 C31.5318626,23.5596077 26.8047419,21.9077076 21.9563842,22.0118711" id="Path" fill="#EF3829"></path>
            <path d="M79.5716368,49.9917168 L81.1779444,49.0910246 L81.1779444,52.6187354 C81.4319088,55.007261 80.5825604,57.3792012 78.8934181,58.9986378 C77.365032,60.1536822 75.5283996,60.771061 73.6461466,60.7624932 C72.5765801,60.7969185 71.5290005,60.4386392 70.6834015,59.7492146 C69.81581,58.8264206 69.3728408,57.5525467 69.4697469,56.2590327 C69.3894497,54.637892 70.1737631,53.1044421 71.5044032,52.2809759 C72.6973004,51.6458788 73.9927786,51.2512789 75.3238457,51.1175819 L79.5716368,49.9917168 Z M76.0020644,30.1014327 C71.5790529,29.547891 67.1751795,31.2824035 64.1867798,34.7550086 C62.6631302,37.0201801 61.8178858,39.7122698 61.7594705,42.4859492 L70.1479657,42.4859492 C70.215949,41.3084462 70.6272473,40.1815334 71.3259246,39.2584691 C72.4481307,37.9441464 74.1300549,37.3217057 75.7878901,37.6072003 C77.2039276,37.4457218 78.6335385,37.7332574 79.8928984,38.4328347 C80.8732257,39.052118 81.4390449,40.1983427 81.356423,41.3976129 C81.3377983,42.6504197 80.5628423,43.751845 79.4288539,44.1372181 L72.9679279,45.1129678 C70.4705154,45.3872386 68.0466863,46.1644707 65.8287831,47.4022269 C62.5552125,49.3344394 60.6782771,53.1190968 61.045556,57.0471383 C60.8821563,59.8646213 61.9148718,62.6133539 63.8655182,64.5529058 C65.8116469,66.17742 68.234564,67.0398018 70.7190973,66.9922803 C74.5987994,67.1143938 78.3937421,65.7844512 81.4278145,63.2393965 L81.4278145,66.9922803 L89.9590926,66.9922803 L89.9590926,41.0973822 C90.2836042,37.5906235 88.6576983,34.201039 85.7826928,32.3906918 C82.7780109,30.7525082 79.4198916,29.9636259 76.0377602,30.1014327 L76.0020644,30.1014327 Z" id="Shape" fill="#EF3829" fill-rule="nonzero"></path>
            <rect id="Rectangle" fill="#EF3829" x="48" y="22" width="8" height="45"></rect>
            <path d="M110.327808,31.3120567 C107.862857,32.3440757 105.740766,34.0745372 104.213628,36.2978723 L104.213628,31.7993921 L96,31.7993921 L96,67 L104.54512,67 L104.54512,50.0932118 C104.388696,47.9730063 104.755889,45.8466567 105.61326,43.9078014 C106.284571,42.5257587 107.316759,41.3584906 108.596685,40.5339412 C109.995158,39.5523079 111.649373,39.017201 113.348066,38.9969605 L116,38.9969605 L116,30 L113.753223,30.1874367 L110.327808,31.3120567 Z" id="Path" fill="#EF3829"></path>
        </g>
    </g>
</svg>